<svg width="22" height="22" viewBox="0 0 22 22" fill="none" xmlns="http://www.w3.org/2000/svg">
<path fill-rule="evenodd" clip-rule="evenodd" d="M11.0017 0.333496C8.10473 0.333496 7.74117 0.346163 6.60338 0.397941C5.46782 0.449942 4.6927 0.629721 4.01447 0.893502C3.3129 1.16595 2.71779 1.5304 2.12489 2.12351C1.53155 2.71641 1.1671 3.31153 0.893768 4.01287C0.629321 4.69132 0.449319 5.46666 0.398207 6.60178C0.347318 7.73957 0.333984 8.10335 0.333984 11.0003C0.333984 13.8972 0.346873 14.2596 0.398429 15.3974C0.450652 16.533 0.630432 17.3081 0.89399 17.9863C1.16666 18.6879 1.53111 19.283 2.12423 19.8759C2.7169 20.4693 3.31202 20.8346 4.01313 21.107C4.69181 21.3708 5.46715 21.5506 6.60249 21.6026C7.74028 21.6544 8.10362 21.667 11.0003 21.667C13.8975 21.667 14.2599 21.6544 15.3977 21.6026C16.5333 21.5506 17.3093 21.3708 17.9879 21.107C18.6893 20.8346 19.2835 20.4693 19.8762 19.8759C20.4695 19.283 20.834 18.6879 21.1073 17.9866C21.3695 17.3081 21.5495 16.5328 21.6029 15.3977C21.654 14.2599 21.6673 13.8972 21.6673 11.0003C21.6673 8.10335 21.654 7.73979 21.6029 6.60201C21.5495 5.46644 21.3695 4.69132 21.1073 4.01309C20.834 3.31153 20.4695 2.71641 19.8762 2.12351C19.2829 1.53018 18.6895 1.16573 17.9873 0.893502C17.3073 0.629721 16.5317 0.449942 15.3961 0.397941C14.2584 0.346163 13.8961 0.333496 10.9983 0.333496H11.0017ZM10.0447 2.25571C10.3287 2.25526 10.6456 2.25571 11.0016 2.25571C13.8496 2.25571 14.1872 2.26593 15.3119 2.31704C16.3519 2.3646 16.9163 2.53838 17.2923 2.68438C17.7901 2.87771 18.145 3.10883 18.5181 3.48217C18.8915 3.8555 19.1226 4.21106 19.3164 4.70885C19.4624 5.0844 19.6364 5.64885 19.6837 6.68887C19.7348 7.81332 19.7459 8.1511 19.7459 10.9978C19.7459 13.8445 19.7348 14.1823 19.6837 15.3067C19.6361 16.3467 19.4624 16.9112 19.3164 17.2868C19.123 17.7845 18.8915 18.139 18.5181 18.5121C18.1448 18.8854 17.7903 19.1166 17.2923 19.3099C16.9168 19.4566 16.3519 19.6299 15.3119 19.6774C14.1874 19.7286 13.8496 19.7397 11.0016 19.7397C8.15335 19.7397 7.81579 19.7286 6.69134 19.6774C5.65133 19.6294 5.08688 19.4557 4.71065 19.3097C4.21287 19.1163 3.85731 18.8852 3.48397 18.5119C3.11063 18.1385 2.87952 17.7839 2.68574 17.2859C2.53974 16.9103 2.36574 16.3459 2.3184 15.3058C2.26729 14.1814 2.25707 13.8436 2.25707 10.9951C2.25707 8.14666 2.26729 7.81066 2.3184 6.6862C2.36596 5.64619 2.53974 5.08174 2.68574 4.70573C2.87908 4.20795 3.11063 3.85239 3.48397 3.47905C3.85731 3.10572 4.21287 2.8746 4.71065 2.68082C5.08666 2.53416 5.65133 2.36082 6.69134 2.31304C7.67535 2.2686 8.05669 2.25526 10.0447 2.25304V2.25571ZM16.6954 4.02684C15.9888 4.02684 15.4154 4.59951 15.4154 5.30641C15.4154 6.01309 15.9888 6.58642 16.6954 6.58642C17.4021 6.58642 17.9755 6.01309 17.9755 5.30641C17.9755 4.59974 17.4021 4.02684 16.6954 4.02684ZM11.0017 5.52241C7.97653 5.52241 5.52383 7.9751 5.52383 11.0002C5.52383 14.0254 7.97653 16.477 11.0017 16.477C14.0268 16.477 16.4786 14.0254 16.4786 11.0002C16.4786 7.9751 14.0268 5.52241 11.0017 5.52241ZM11.0016 7.44465C12.9652 7.44465 14.5572 9.03645 14.5572 11.0002C14.5572 12.9638 12.9652 14.5558 11.0016 14.5558C9.03783 14.5558 7.44604 12.9638 7.44604 11.0002C7.44604 9.03645 9.03783 7.44465 11.0016 7.44465Z" fill="white"/>
</svg>
