<svg width="146" height="60" viewBox="0 0 146 60" fill="none" xmlns="http://www.w3.org/2000/svg">
<path d="M54.6379 25.2139H46.237L38.3571 34.7732H35.6871V14.1147H28.3281V50.2991H35.6871V40.6115H38.3571L46.237 50.2991H54.9636L44.2833 37.2753L54.6379 25.2139Z" fill="#4EBD09"/>
<path d="M64.8628 15.5259H57.5039V22.134H64.8628V15.5259Z" fill="#4EBD09"/>
<path d="M64.8628 25.2139H57.5039V50.3633H64.8628V25.2139Z" fill="#4EBD09"/>
<path d="M75.6734 15.5903H68.3145V50.3633H75.6734V15.5903Z" fill="#4EBD09"/>
<path d="M22.2715 35.9919C21.2947 35.4786 20.1876 35.1578 18.82 35.0295C17.5175 34.9012 14.9126 34.8371 13.2845 34.8371H11.2657C9.9632 34.8371 8.98635 34.7087 8.33511 34.6446C7.94437 34.5804 7.68388 34.4521 7.48851 34.388C7.29314 34.2596 7.16289 34.1955 7.09777 34.0672C6.9024 33.8106 6.83728 33.3615 6.83728 32.784V32.6557C6.83728 32.0783 6.96752 31.6292 7.09777 31.3726C7.16289 31.3084 7.29314 31.1801 7.48851 31.0518C7.68388 30.9235 8.0095 30.8593 8.33511 30.7952C8.98635 30.6669 9.9632 30.6027 11.2657 30.6027H23.1181V24.8286H10.94C9.31196 24.8286 7.87925 24.8928 6.57678 25.0211C5.27432 25.1494 4.1021 25.4702 3.12525 25.9834C2.1484 26.4967 1.36692 27.3307 0.845933 28.4214C0.324946 29.5121 0.0644531 30.9877 0.0644531 32.7199C0.0644531 34.5163 0.324946 35.9277 0.845933 37.0184C1.36692 38.1091 2.1484 38.9431 3.12525 39.4563C4.1021 39.9696 5.2092 40.2904 6.57678 40.4187C7.87925 40.547 9.37709 40.6112 10.94 40.6112H11.9169H12.9589C14.2613 40.6112 16.4104 40.7395 16.9965 40.8036C17.3873 40.8678 17.6477 40.9961 17.8431 41.0603C18.0385 41.1886 18.1687 41.2527 18.2339 41.381C18.4292 41.6377 18.4944 42.0868 18.4944 42.6642V42.7925C18.4944 43.3699 18.3641 43.819 18.2339 44.0756C18.1687 44.1398 18.0385 44.2681 17.8431 44.3964C17.6477 44.5247 17.3221 44.5889 16.9965 44.653C16.3453 44.7813 15.3684 44.8455 14.066 44.8455L1.43204 44.9097V50.6838H14.4567C16.0848 50.6838 17.5175 50.6196 18.82 50.4913C20.1224 50.363 21.2947 50.0422 22.2715 49.5289C23.2484 49.0157 24.0298 48.1817 24.5508 47.091C25.0718 46.0003 25.3323 44.5247 25.3323 42.7925C25.3323 40.9961 25.0718 39.5847 24.5508 38.494C24.0298 37.3392 23.2484 36.5051 22.2715 35.9919Z" fill="#4EBD09"/>
<path d="M89.4792 14.1147L82.7064 4.17041L75.9336 14.1147H79.0595V50.2991H86.4184V14.1147H89.4792Z" fill="#4EBD09"/>
<path d="M109.603 38.3657C109.603 39.4564 109.537 40.2262 109.407 40.9961C109.277 41.8302 109.016 42.4717 108.691 42.9208C108.3 43.4341 107.779 43.7549 107.063 44.0756C106.346 44.3323 105.304 44.4606 104.002 44.4606C102.83 44.4606 101.853 44.3964 101.137 44.2681C100.42 44.1398 99.9643 43.8832 99.7038 43.5624C99.4434 43.2416 99.1829 42.6642 99.0526 41.8943C98.9875 41.3169 98.9224 40.547 98.9224 39.713V9.94429H101.983L95.2103 0L88.4375 9.94429H91.4983V39.713V40.4829C91.4983 42.0868 91.6285 43.4982 91.8239 44.7172C92.0844 46.0003 92.5403 47.091 93.1915 47.9892C93.9079 48.8874 94.8847 49.5931 96.1221 50.0422C97.4245 50.4913 99.0526 50.6838 101.071 50.6838C102.634 50.6838 104.002 50.5555 105.174 50.2988C106.346 50.0422 107.323 49.5931 108.17 49.0157C108.821 48.5666 109.342 47.9892 109.863 47.3476L110.058 50.2988H116.962V26.1118H109.603V38.3657Z" fill="#FA2702"/>
<path d="M145.42 31.3728C145.16 30.2821 144.769 29.3198 144.118 28.5499C143.466 27.78 142.555 27.2026 141.317 26.8176C140.08 26.4327 138.517 26.2402 136.563 26.2402H120.348V60.0508H127.772V50.6839H136.498C138.517 50.6839 140.145 50.4915 141.382 50.0424C142.62 49.5933 143.532 48.9517 144.183 48.1818C144.834 47.3478 145.29 46.4496 145.485 45.2948C145.681 44.2041 145.811 36.5053 145.811 35.2222C145.811 33.7466 145.681 32.4634 145.42 31.3728ZM138.257 42.9851C138.191 43.4984 137.931 43.8833 137.67 44.14C137.345 44.3966 136.889 44.589 136.238 44.7174C135.587 44.8457 134.675 44.8457 133.503 44.8457H127.772V32.0143H133.568C134.675 32.0143 135.587 32.0785 136.238 32.2068C136.889 32.3351 137.345 32.5276 137.67 32.7842C137.996 33.0408 138.191 33.4258 138.257 33.939C138.322 34.4523 138.387 35.0939 138.387 35.8637C138.387 36.5695 138.387 42.4719 138.257 42.9851Z" fill="#FA2702"/>
</svg>
