<svg width="21" height="18" viewBox="0 0 21 18" fill="none" xmlns="http://www.w3.org/2000/svg">
<path d="M8.02013 16.3714C7.42251 16.3714 7.52978 16.1383 7.31525 15.5634L5.56836 9.7212L16.4175 2.85352L17.6893 3.19535L16.632 6.11644L8.02013 16.3714Z" fill="#C8DAEA"/>
<path d="M8.01953 16.3714C8.47924 16.3714 8.67845 16.1539 8.93895 15.9053C9.33736 15.5168 14.4554 10.4671 14.4554 10.4671L11.3141 9.69019L8.40262 11.5547L8.01953 16.216V16.3714Z" fill="#A9C9DD"/>
<path d="M8.32631 11.6169L15.7429 17.1638C16.5857 17.63 17.1987 17.3969 17.4132 16.3714L20.4319 1.95237C20.7384 0.693817 19.9569 0.134459 19.1448 0.507365L1.43069 7.4372C0.22013 7.93441 0.235453 8.61807 1.21616 8.91329L5.76727 10.3583L16.2946 3.63045C16.7849 3.3197 17.2446 3.49061 16.8769 3.83244L8.32631 11.6169Z" fill="url(#paint0_linear_1829_1786)"/>
<defs>
<linearGradient id="paint0_linear_1829_1786" x1="12.7688" y1="8.40909" x2="16.6766" y2="14.5754" gradientUnits="userSpaceOnUse">
<stop stop-color="#EFF7FC"/>
<stop offset="1" stop-color="white"/>
</linearGradient>
</defs>
</svg>
