<svg width="22" height="16" viewBox="0 0 22 16" fill="none" xmlns="http://www.w3.org/2000/svg">
<path fill-rule="evenodd" clip-rule="evenodd" d="M19.3353 1.12428C20.2533 1.37617 20.9762 2.11835 21.2215 3.06085C21.6673 4.76904 21.6673 8.33317 21.6673 8.33317C21.6673 8.33317 21.6673 11.8972 21.2215 13.6055C20.9762 14.548 20.2533 15.2902 19.3353 15.5422C17.6718 15.9998 11.0007 15.9998 11.0007 15.9998C11.0007 15.9998 4.3295 15.9998 2.66586 15.5422C1.74792 15.2902 1.02501 14.548 0.779681 13.6055C0.333984 11.8972 0.333984 8.33317 0.333984 8.33317C0.333984 8.33317 0.333984 4.76904 0.779681 3.06085C1.02501 2.11835 1.74792 1.37617 2.66586 1.12428C4.3295 0.666504 11.0007 0.666504 11.0007 0.666504C11.0007 0.666504 17.6718 0.666504 19.3353 1.12428ZM9.00067 5.3331V11.9998L14.334 8.66656L9.00067 5.3331Z" fill="white"/>
</svg>
